<svg width="24" height="20" viewBox="0 0 24 20" fill="none" xmlns="http://www.w3.org/2000/svg">
<path d="M23.353 2.96027C22.518 3.33027 21.621 3.58027 20.678 3.69327C21.651 3.11106 22.3789 2.19474 22.726 1.11527C21.8118 1.65826 20.8113 2.04047 19.768 2.24527C19.0664 1.49614 18.1371 0.999597 17.1243 0.832744C16.1116 0.665892 15.0721 0.838062 14.1672 1.32252C13.2624 1.80698 12.5428 2.57663 12.1202 3.51197C11.6975 4.44732 11.5955 5.49602 11.83 6.49527C9.97769 6.40227 8.16563 5.92082 6.51143 5.08218C4.85722 4.24353 3.39784 3.06643 2.228 1.62727C1.828 2.31727 1.598 3.11727 1.598 3.96927C1.59756 4.73627 1.78644 5.49151 2.14788 6.168C2.50933 6.84449 3.03216 7.42131 3.67 7.84727C2.93028 7.82373 2.20688 7.62385 1.56 7.26427V7.32427C1.55993 8.40001 1.93204 9.44265 2.61319 10.2753C3.29434 11.1079 4.24257 11.6792 5.297 11.8923C4.61079 12.078 3.89134 12.1053 3.193 11.9723C3.4905 12.8979 4.07 13.7073 4.85037 14.2872C5.63074 14.8671 6.57292 15.1884 7.545 15.2063C5.89484 16.5017 3.85689 17.2044 1.759 17.2013C1.38738 17.2014 1.01608 17.1797 0.647003 17.1363C2.77648 18.5054 5.25534 19.2321 7.787 19.2293C16.357 19.2293 21.042 12.1313 21.042 5.97527C21.042 5.77527 21.037 5.57327 21.028 5.37327C21.9393 4.71424 22.7259 3.89817 23.351 2.96327L23.353 2.96027Z" fill="#6630FF"/>
</svg>
