<svg width="24" height="14" viewBox="0 0 24 14" fill="none" xmlns="http://www.w3.org/2000/svg">
<path fill-rule="evenodd" clip-rule="evenodd" d="M23.4497 0.948C23.6157 0.402 23.4497 0 22.6547 0H20.0297C19.3617 0 19.0537 0.347 18.8867 0.73C18.8867 0.73 17.5517 3.926 15.6607 6.002C15.0487 6.604 14.7707 6.795 14.4367 6.795C14.2697 6.795 14.0187 6.604 14.0187 6.057V0.948C14.0187 0.292 13.8347 0 13.2787 0H9.15075C8.73375 0 8.48275 0.304 8.48275 0.593C8.48275 1.214 9.42875 1.358 9.52575 3.106V6.904C9.52575 7.737 9.37275 7.888 9.03875 7.888C8.14875 7.888 5.98375 4.677 4.69875 1.003C4.44975 0.288 4.19775 0 3.52675 0H0.899748C0.149748 0 -0.00025177 0.347 -0.00025177 0.73C-0.00025177 1.412 0.889748 4.8 4.14475 9.281C6.31475 12.341 9.36975 14 12.1527 14C13.8217 14 14.0277 13.632 14.0277 12.997V10.684C14.0277 9.947 14.1857 9.8 14.7147 9.8C15.1047 9.8 15.7717 9.992 17.3297 11.467C19.1097 13.216 19.4027 14 20.4047 14H23.0297C23.7797 14 24.1557 13.632 23.9397 12.904C23.7017 12.18 22.8517 11.129 21.7247 9.882C21.1127 9.172 20.1947 8.407 19.9157 8.024C19.5267 7.533 19.6377 7.314 19.9157 6.877C19.9157 6.877 23.1157 2.451 23.4487 0.948H23.4497Z" fill="#6630FF"/>
</svg>
